<svg width="531" height="106" viewBox="0 0 531 106" fill="none" xmlns="http://www.w3.org/2000/svg">
<path d="M341.524 24.2071C332.625 24.8208 327.771 35.7156 325.905 24.3391C306.494 24.5385 290.187 24.3179 284.959 17.4893C280.458 12.4119 293.696 8.29984 307.728 6.50728C311.69 4.98823 316.048 4.17313 319.016 5.58655C327.797 5.30055 334.893 6.20222 335.327 8.68928C336.075 9.10967 336.772 9.61759 337.408 10.2239C344.159 11.6324 349.44 14.193 352.64 17.4893C368.479 -2.59128 396.478 -1.24786 408.498 1.93392C439.892 11.8328 446.326 40.7046 445.619 53.9031C447.033 72.004 429.711 47.8933 421.579 54.9644C420.731 30.9247 403.078 24.443 394.357 24.2071C368.62 24.2071 363.6 46.5974 364.307 57.7926V94.9128C354.691 114.993 344.038 103.28 339.913 94.9128L341.524 24.2071Z" fill="black"/>
<path d="M24.7715 54.9651C25.9028 76.7427 46.6905 80.773 56.9429 80.0659C75.3269 79.0063 49.6732 91.2591 50.7338 91.2591C53.2792 105.4 78.6628 105.754 56.9429 103.752C31.2438 101.383 17.5689 92.203 10.9828 83.6002C-0.0482523 71.1558 -0.212757 51.5466 1.08387 43.2975C6.45755 16.4291 29.4843 4.52712 40.3259 1.93469C64.3661 -5.13577 86.1672 9.35894 94.0628 17.4901C109.571 37.6199 96.5148 62.8771 97.1472 73.5931L100.06 76.4108C100.394 77.0869 100.649 77.8088 100.841 78.5541C101.815 78.6509 102.47 78.8808 102.892 79.1917L105.953 80.0659C111.937 74.8633 106.973 86.2847 103.369 85.4746C99.3811 93.7979 101.427 89.0623 101.368 83.0072C101.008 81.9365 100.734 80.4746 100.582 78.5319C98.2473 77.914 97.2997 76.1759 97.1472 73.5931L83.6122 60.5018C84.4607 31.088 59.7709 23.1472 48.4582 24.2078C27.4276 26.1795 23.8288 46.8339 24.7715 54.9651Z" fill="black"/>
<path d="M282.85 54.9651C283.981 76.7427 304.769 80.773 315.021 80.0659C333.405 79.0064 331.284 86.782 332.344 86.782C334.89 100.923 323.701 103.752 315.021 103.752C289.213 103.752 275.647 92.2031 269.061 83.6002C258.03 71.1558 257.866 51.5466 259.162 43.2975C264.536 16.4291 287.563 4.52712 298.404 1.93469C322.444 -5.13577 344.246 9.35894 352.141 17.4901C371.387 42.4717 346.64 75.3502 358.66 78.532C361.727 78.751 361.165 81.9837 359.749 85.5228C361.937 93.5019 365.402 87.1641 358.66 93.0268C349.044 113.107 343.539 103.281 339.414 94.9136V57.7934C340.262 28.3795 317.849 23.1472 306.537 24.2078C286.826 26.0557 281.907 46.8339 282.85 54.9651Z" fill="black"/>
<path d="M107.05 54.9173C108.181 76.6949 128.969 80.7251 139.222 80.0181C157.605 78.9585 155.484 86.7341 156.544 86.7341C159.09 100.875 147.901 103.704 139.222 103.704C113.413 103.704 99.8475 92.1552 93.2613 83.5523C82.2303 71.108 82.0658 51.4988 83.3624 43.2497C88.7361 16.3812 111.763 4.47927 122.604 1.88684C146.645 -5.18362 168.446 9.31109 176.341 17.4422C192.18 -2.63837 220.179 -1.29495 232.199 1.88684C263.593 11.7857 270.027 40.6575 269.32 53.8561C270.734 71.9569 255.887 86.7341 247.755 93.8052C237.997 102.29 219.59 104.293 211.341 103.704C199.462 103.987 195.079 97.2226 194.371 93.8052C192.675 80.2295 204.977 78.9572 211.341 80.0181C235.381 82.564 243.984 64.345 245.28 54.9173C244.432 30.8776 226.779 24.3959 218.058 24.16C192.321 24.16 187.301 46.5504 188.008 57.7455V94.8658C178.392 114.946 167.739 103.233 163.614 94.8658V57.7455C164.463 28.3317 142.049 23.0994 130.737 24.16C109.525 29.2508 106.107 46.786 107.05 54.9173Z" fill="#E65A41"/>
<path d="M90.7876 47.2996C97.9397 88.0299 129.676 80.4184 139.929 79.7113C156.545 77.9437 156.545 87.2727 156.545 87.2727C158.666 100.57 147.902 104.243 139.222 104.243C113.414 104.243 99.8477 92.6938 93.2616 84.0909C82.2306 71.6465 82.0661 52.0373 83.3627 43.7882C90.0805 13.6009 111.959 4.45083 122.8 1.8584C101.588 6.94926 89.499 27.1611 90.7876 47.2996Z" fill="#C84F39"/>
<path d="M261.552 47.2999C254.4 88.0302 222.664 80.4187 212.411 79.7116C195.795 77.944 194.374 88.1183 194.374 88.1183C192.252 101.415 204.438 104.243 213.118 104.243C238.926 104.243 252.492 92.6941 259.078 84.0912C270.109 71.6468 270.274 52.0376 268.977 43.7885C262.259 13.6011 239.896 3.56606 229.054 0.973633C250.266 6.06449 262.841 27.1614 261.552 47.2999Z" fill="#C84F39"/>
<path d="M445.475 54.9651C446.606 76.7427 467.394 80.773 477.646 80.0659C496.03 79.0064 493.908 86.782 494.969 86.782C497.514 100.923 486.326 103.752 477.646 103.752C451.838 103.752 438.272 92.2031 431.686 83.6002C420.655 71.1558 420.49 51.5466 421.787 43.2975C427.161 16.4291 450.187 4.52712 461.029 1.93469C485.069 -5.13577 506.87 9.35894 514.766 17.4901C532.35 40.3147 527.376 92.4553 529.891 99.4018L530.83 100.097C525.19 107.533 517.578 104.927 517.543 99.6973C510.18 110.432 505.596 102.13 502.039 94.9136V57.7934C502.887 28.3795 480.474 23.1472 469.161 24.2078C447.579 26.2312 444.532 46.8339 445.475 54.9651Z" fill="black"/>
</svg>
