<svg width="70" height="71" viewBox="0 0 70 71" fill="none" xmlns="http://www.w3.org/2000/svg">
<g filter="url(#filter0_d_762_507)">
<circle cx="35.2" cy="22.4992" r="16.7999" fill="#1A202C"/>
</g>
<path d="M40.4499 22.4992C40.4499 23.8916 39.8968 25.227 38.9122 26.2115C37.9277 27.1961 36.5923 27.7492 35.1999 27.7492C33.8075 27.7492 32.4722 27.1961 31.4876 26.2115C30.503 25.227 29.9499 23.8916 29.9499 22.4992C29.9499 22.2 29.9814 21.9077 30.0357 21.6242H28.1999V28.619C28.1999 29.1055 28.5937 29.4992 29.0802 29.4992H41.3214C41.5546 29.4988 41.778 29.4058 41.9427 29.2408C42.1074 29.0758 42.1999 28.8521 42.1999 28.619V21.6242H40.3642C40.4184 21.9077 40.4499 22.2 40.4499 22.4992ZM35.1999 25.9992C35.6596 25.9991 36.1149 25.9084 36.5396 25.7324C36.9643 25.5564 37.3501 25.2984 37.6751 24.9732C38.0001 24.6481 38.2579 24.2621 38.4338 23.8373C38.6096 23.4125 38.7 22.9572 38.6999 22.4975C38.6998 22.0377 38.6091 21.5825 38.4331 21.1578C38.257 20.7331 37.9991 20.3472 37.6739 20.0222C37.3487 19.6972 36.9627 19.4395 36.5379 19.2636C36.1132 19.0878 35.6579 18.9974 35.1982 18.9975C34.2697 18.9977 33.3793 19.3668 32.7229 20.0235C32.0665 20.6802 31.6979 21.5707 31.6982 22.4992C31.6984 23.4277 32.0675 24.3181 32.7242 24.9745C33.3809 25.6308 34.2714 25.9995 35.1999 25.9992ZM39.3999 18.8242H41.4982C41.6376 18.8242 41.7713 18.769 41.87 18.6706C41.9687 18.5722 42.0244 18.4386 42.0249 18.2992V16.201C42.0249 16.0613 41.9694 15.9273 41.8706 15.8285C41.7718 15.7297 41.6379 15.6742 41.4982 15.6742H39.3999C39.2602 15.6742 39.1262 15.7297 39.0274 15.8285C38.9287 15.9273 38.8732 16.0613 38.8732 16.201V18.2992C38.8749 18.588 39.1112 18.8242 39.3999 18.8242ZM35.1999 5.69922C30.7443 5.69922 26.4711 7.46921 23.3205 10.6198C20.1699 13.7704 18.3999 18.0436 18.3999 22.4992C18.3999 26.9549 20.1699 31.228 23.3205 34.3786C26.4711 37.5292 30.7443 39.2992 35.1999 39.2992C37.4061 39.2992 39.5907 38.8647 41.629 38.0204C43.6673 37.1761 45.5193 35.9386 47.0793 34.3786C48.6393 32.8186 49.8768 30.9666 50.7211 28.9283C51.5654 26.89 51.9999 24.7054 51.9999 22.4992C51.9999 20.293 51.5654 18.1084 50.7211 16.0701C49.8768 14.0319 48.6393 12.1798 47.0793 10.6198C45.5193 9.0598 43.6673 7.82232 41.629 6.97804C39.5907 6.13376 37.4061 5.69922 35.1999 5.69922ZM43.9499 29.305C43.9499 30.3742 43.0749 31.2492 42.0057 31.2492H28.3942C27.3249 31.2492 26.4499 30.3742 26.4499 29.305V15.6935C26.4499 14.6242 27.3249 13.7492 28.3942 13.7492H42.0057C43.0749 13.7492 43.9499 14.6242 43.9499 15.6935V29.305Z" fill="white"/>
<defs>
<filter id="filter0_d_762_507" x="0.400024" y="0.699219" width="69.5999" height="69.5996" filterUnits="userSpaceOnUse" color-interpolation-filters="sRGB">
<feFlood flood-opacity="0" result="BackgroundImageFix"/>
<feColorMatrix in="SourceAlpha" type="matrix" values="0 0 0 0 0 0 0 0 0 0 0 0 0 0 0 0 0 0 127 0" result="hardAlpha"/>
<feOffset dy="13"/>
<feGaussianBlur stdDeviation="9"/>
<feColorMatrix type="matrix" values="0 0 0 0 0.0658854 0 0 0 0 0.0730469 0 0 0 0 0.1375 0 0 0 0.08 0"/>
<feBlend mode="normal" in2="BackgroundImageFix" result="effect1_dropShadow_762_507"/>
<feBlend mode="normal" in="SourceGraphic" in2="effect1_dropShadow_762_507" result="shape"/>
</filter>
</defs>
</svg>
